<?xml version="1.0" encoding="utf-8"?>
<!-- Generator: Adobe Illustrator 16.0.0, SVG Export Plug-In . SVG Version: 6.00 Build 0)  -->
<!DOCTYPE svg PUBLIC "-//W3C//DTD SVG 1.1//EN" "http://www.w3.org/Graphics/SVG/1.1/DTD/svg11.dtd">
<svg version="1.1" id="Vrstva_1" xmlns="http://www.w3.org/2000/svg" xmlns:xlink="http://www.w3.org/1999/xlink" x="0px" y="0px"
	 width="640px" height="480px" viewBox="0 0 640 480" enable-background="new 0 0 640 480" xml:space="preserve">
<symbol  id="OO" viewBox="-49.606 -22.355 99.212 44.709">
	<path fill="#FFFFFF" d="M0.016,6.018c1.586,1.64,3.034,3.195,4.55,4.685c2.595,2.549,5.337,4.928,8.386,6.927
		c3.243,2.124,6.716,3.704,10.565,4.327c6.251,1.012,12.136,0.111,17.374-3.649c4.111-2.947,6.651-6.998,7.879-11.865
		c1.307-5.185,1.172-10.317-1.053-15.24c-3.247-7.187-8.826-11.547-16.541-13.107c-6.283-1.271-12.031,0.229-17.366,3.614
		c-3.117,1.979-5.908,4.357-8.559,6.909C3.633-9.826,2.05-8.229,0.453-6.646C0.308-6.501,0.19-6.331,0.006-6.107
		c-1.312-1.335-2.542-2.625-3.81-3.87c-2.764-2.713-5.629-5.303-8.856-7.458c-3.317-2.217-6.878-3.865-10.837-4.519
		c-6.133-1.008-11.914-0.128-17.098,3.482c-4.159,2.896-6.793,6.904-8.091,11.771c-1.418,5.312-1.287,10.578,1.031,15.627
		c3.274,7.137,8.854,11.454,16.541,12.99c6.147,1.229,11.791-0.193,17.044-3.46c3.358-2.088,6.34-4.647,9.16-7.401
		C-3.275,9.458-1.71,7.787,0.016,6.018z M-6.036-0.003C-6.474,0.415-6.88,0.802-7.288,1.189c-2.131,2.032-4.228,4.105-6.406,6.089
		c-2.126,1.935-4.453,3.603-7.125,4.727c-3.421,1.44-6.914,1.771-10.452,0.493c-6.143-2.215-9.651-8.362-8.604-14.94
		c1.176-7.382,7.573-11.882,15.081-10.626c2.708,0.454,5.152,1.555,7.445,3.019C-13.055-7.311-9.584-3.644-6.036-0.003z
		 M5.987-0.049c2.918-2.713,5.769-5.44,8.71-8.07c1.812-1.621,3.857-2.934,6.117-3.884c3.265-1.374,6.611-1.752,10.024-0.642
		c8.485,2.763,11.755,12.589,7.175,20.12c-2.777,4.571-7.94,6.457-13.166,5.602c-2.75-0.451-5.231-1.572-7.557-3.064
		C13.029,7.276,9.573,3.631,5.987-0.049z"/>
</symbol>
<g>
	
		<use xlink:href="#OO"  width="99.212" height="44.709" x="-49.606" y="-22.355" transform="matrix(5.9721 0 0 -5.9721 320 167.5103)" overflow="visible"/>
	<g enable-background="new    ">
		<path fill="#FFFFFF" d="M35.107,424.172v-75.634h15.829v75.634H35.107z"/>
		<path fill="#FFFFFF" d="M62.205,367.984h14.781v10.011H77.3c2.987-6.972,8.91-11.06,17.559-11.06
			c12.475,0,19.498,7.861,19.498,21.019v36.218H99.052V391.15c0-7.338-3.459-11.53-10.325-11.53c-6.866,0-11.217,5.03-11.217,12.317
			v32.233H62.205V367.984z"/>
		<path fill="#FFFFFF" d="M128.14,379.516h-7.652v-11.27h7.652v-4.245c0-11.007,5.189-16.144,18.502-16.144
			c2.83,0,6.027,0.313,7.81,0.681v10.116c-1.101-0.211-2.621-0.314-4.141-0.314c-5.032,0-7.233,2.201-7.233,6.186v3.722h11.165
			v11.271h-10.797v44.655H128.14V379.516z"/>
		<path fill="#FFFFFF" d="M162,353.885c0-4.455,3.564-7.914,8.177-7.914c4.612,0,8.176,3.459,8.176,7.914
			c0,4.402-3.564,7.914-8.176,7.914C165.563,361.799,162,358.287,162,353.885z M162.523,367.984h15.305v56.188h-15.305V367.984z"/>
		<path fill="#FFFFFF" d="M187.997,367.984h14.781v10.011h0.314c2.987-6.972,8.91-11.06,17.559-11.06
			c12.475,0,19.498,7.861,19.498,21.019v36.218h-15.305V391.15c0-7.338-3.459-11.53-10.325-11.53
			c-6.866,0-11.217,5.03-11.217,12.317v32.233h-15.305V367.984z"/>
		<path fill="#FFFFFF" d="M249.582,353.885c0-4.455,3.564-7.914,8.177-7.914c4.612,0,8.176,3.459,8.176,7.914
			c0,4.402-3.564,7.914-8.176,7.914C253.146,361.799,249.582,358.287,249.582,353.885z M250.106,367.984h15.305v56.188h-15.305
			V367.984z"/>
		<path fill="#FFFFFF" d="M294.972,355.038v12.946h10.377v11.531h-10.377v26.888c0,4.298,2.097,6.343,6.604,6.343
			c1.363,0,2.777-0.105,3.722-0.264v11.271c-1.573,0.366-4.192,0.629-7.286,0.629c-13.208,0-18.345-4.403-18.345-15.356v-29.51
			h-7.914v-11.531h7.914v-12.945L294.972,355.038L294.972,355.038z"/>
		<path fill="#FFFFFF" d="M315.151,444.823V433.03c0.472,0.104,3.25,0.104,3.825,0.104c5.609,0,8.387-1.782,9.436-6.237
			c0-0.209,0.576-2.463,0.471-2.672l-19.55-56.24h16.825l11.95,43.923h0.262l11.95-43.923h16.144l-19.341,57.444
			c-4.822,14.414-11.846,19.552-26.207,19.552C320.392,444.98,315.623,444.928,315.151,444.823z"/>
		<path fill="#FFFFFF" d="M422.232,424.172H373.33v-75.634h15.828v62.53h33.074V424.172z"/>
		<path fill="#FFFFFF" d="M427.473,396.025c0-18.188,11.006-29.248,27.832-29.248c16.824,0,27.831,11.008,27.831,29.248
			c0,18.502-10.85,29.352-27.831,29.352C438.322,425.377,427.473,414.477,427.473,396.025z M467.568,396.078
			c0-11.164-4.821-17.611-12.265-17.611c-7.442,0-12.317,6.447-12.317,17.611c0,11.27,4.77,17.611,12.317,17.611
			C462.799,413.689,467.568,407.347,467.568,396.078z"/>
		<path fill="#FFFFFF" d="M488.953,396.025c0-18.188,11.007-29.248,27.832-29.248c16.824,0,27.832,11.008,27.832,29.248
			c0,18.502-10.85,29.352-27.832,29.352S488.953,414.477,488.953,396.025z M529.05,396.078c0-11.164-4.821-17.611-12.265-17.611
			c-7.444,0-12.317,6.447-12.317,17.611c0,11.27,4.771,17.611,12.317,17.611C524.28,413.689,529.05,407.347,529.05,396.078z"/>
		<path fill="#FFFFFF" d="M608.299,396.078c0,18.083-8.701,28.984-22.748,28.984c-8.176,0-14.466-3.983-17.453-10.325h-0.313v27.778
			h-15.306v-74.531h15.096v9.801h0.313c3.04-6.604,9.277-10.692,17.401-10.692C599.545,367.093,608.299,377.941,608.299,396.078z
			 M592.627,396.078c0-10.168-4.822-16.721-12.475-16.721c-7.495,0-12.422,6.656-12.422,16.721c0,10.168,4.927,16.668,12.422,16.668
			C587.805,412.746,592.627,406.299,592.627,396.078z"/>
	</g>
</g>
</svg>
