<svg version="1" xmlns="http://www.w3.org/2000/svg" width="8777.333" height="8777.333" viewBox="0 0 6583.000000 6583.000000"><path d="M0 3291.5V6583h6583V0H0v3291.5zm1844-1267.6c79.4 5.6 145.8 15.8 218.5 33.6 147.3 36 292.6 99.5 440.5 192.5 187 117.6 378 277.5 591.1 495.2 36.9 37.7 161.9 166.8 188.9 195.1l9.5 10 6.5-7c20.1-21.4 150-156.5 181.6-188.8 119.9-122.8 241.9-234.6 350.9-321.6 253.7-202.4 487.9-323.2 728-375.4 72.2-15.7 153.5-26.6 243.5-32.5 26.2-1.8 116.8-2.4 146-1.1 237.2 11 443.6 78.1 634 206.2 163.7 110.1 287.9 249.1 376.6 421.3 57.6 112 99.7 240.2 125.9 384 10.3 56.4 16.8 108.6 21.2 171.1 2.2 30.5 2.5 130 .5 158.5-9.6 138.2-35.5 254.3-83.7 375.5-23 57.8-59.5 132.4-92 188-72.8 124.5-157.9 228.9-258 316.5-154.3 135.1-341.9 228.4-563.6 280.4-74.4 17.5-140 27.5-216.9 33.3-33.7 2.5-127.5 2.5-161 0-156.1-11.8-296.8-47.8-445.5-114.3-30-13.4-89.6-43.3-120.5-60.5-140.1-77.9-293-189.5-447-326.4-80.2-71.2-129.5-118.5-305.8-293.5-73.4-72.8-101-100.7-108.5-110-13.5-16.8-12.3-15.6-14.3-13.9-1 .8-35.6 36-76.9 78.4-162.8 166.6-264 263.6-373 357.5-273.1 235-520.6 375.4-775.2 439.6-85.3 21.5-172.9 34.8-276.3 42.1-37 2.6-146.7 2.6-182 0-155.5-11.4-284.5-42.9-419.1-102.3-20.1-8.9-72-34.8-92.9-46.5-147.1-81.8-270.9-187.9-366.4-313.9-105.3-138.9-177.5-301.4-220-495-24.9-113.4-35.8-217.3-34.3-325 .6-43.1 1.3-57.2 4.7-95 12-133.4 45.8-262.1 101.6-386.5 55.8-124.4 127.9-239.2 211-336 38.5-44.8 88.2-94.2 132.9-132 126.7-107.4 276.7-188 447.5-240.5 110.9-34.1 224.8-55.2 328.5-61 10.5-.6 21.7-1.2 25-1.4 12.5-.7 103.7.3 118.5 1.3z"/><path d="M1730 2537.1c-147 8.3-293.5 61.6-411.5 149.6-169.8 126.6-276.5 316.7-298.4 531.4-6 58.2-5.3 122.2 1.9 181.9 16 131.3 62.7 254.2 135 354.6 38.1 52.8 86.3 102.9 136.9 142.3 168.1 130.4 387.5 177.5 616.3 132.1 153.7-30.5 300.3-97.4 462.3-210.8 124.9-87.4 244-190.8 403-349.7 37.5-37.5 140.2-142.2 166.2-169.5l7.1-7.5-14.2-13.5c-56.6-54-108.2-103.3-157.6-150.9-131-126.4-166.1-159.7-225.4-214.5-37-34.2-50.3-46.2-73-65.9-139.7-121.4-278.3-206-423.6-258.5-108.4-39.1-221.5-56.9-325-51.1zM4806.5 2537.6c-48.3 2.9-80.6 6.5-119 13.5-175.9 32-346.9 114-536.5 257.2-110.8 83.7-214.5 177-364.5 327.8-57.3 57.7-153.7 156.3-154.3 157.8-.1.5 12.5 12.7 28 27.2 15.6 14.5 64.1 59.9 107.8 100.9 191 179 267.3 249.4 354 327 107.4 96 219.3 167.8 346 222 143.7 61.4 282 85.5 416 72.4 131.9-12.8 263.1-62.4 371.6-140.4 142.9-102.8 245.4-254.2 289.4-427.5 10.7-42.4 17.6-83.6 21.7-130.5 2.1-24.4 2.4-94.8.5-117.5-8.5-100.7-30.2-185.7-69.9-273.3-65.7-145.3-164.9-255.2-295.7-327.7-89.3-49.4-189.6-78.5-302.1-87.6-12.9-1-81.5-2-93-1.3z"/></svg>